<svg width="23.999999999999996" height="23.999999999999996" xmlns="http://www.w3.org/2000/svg" fill="#FFFFFF" enable-background="new 0 0 24 24">

 <g>
  <title>Layer 1</title>
  <g id="svg_1">
   <rect id="svg_2" width="24" height="24" fill="none"/>
  </g>
  <g id="svg_3">
   <path id="svg_4" d="m14,4l0,5c0,1.12 0.37,2.16 1,3l-6,0c0.65,-0.86 1,-1.9 1,-3l0,-5l4,0m3,-2l-10,0c-0.55,0 -1,0.45 -1,1c0,0.55 0.45,1 1,1c0,0 0,0 0,0l1,0l0,5c0,1.66 -1.34,3 -3,3l0,2l5.97,0l0,7l1,1l1,-1l0,-7l6.03,0l0,-2c0,0 0,0 0,0c-1.66,0 -3,-1.34 -3,-3l0,-5l1,0c0,0 0,0 0,0c0.55,0 1,-0.45 1,-1c0,-0.55 -0.45,-1 -1,-1l0,0z"/>
  </g>
  <line stroke-linecap="undefined" stroke-linejoin="undefined" id="svg_5" y2="20.55329" x2="20.21113" y1="3.10463" x1="4.37537" stroke="#ffffff" fill="none"/>
 </g>
</svg>